# xmcd
#
# Track frame offsets: 
#        150
#        28575
#        48547
#        74517
#        92315
#        126715
#        164042
#        180607
#        189910
#        227625
#        249075
#
# Disc length: 3861 seconds
#
# Revision: 0
# Processed by: cddbd v1.4PL0 Copyright (c) Steve Scherf et al.
# Submitted via: ExactAudioCopy v0.90b2
#
DISCID=920f130b
DTITLE=Howard 'Slim' Hunt and The Supreme Angels - Over Yonder!
DYEAR=1998
DGENRE=Gospel
TTITLE0=Praise Him
TTITLE1=Somebody Touched Me
TTITLE2=Don't Leave Me Lord
TTITLE3=You Can Count On Me
TTITLE4=Just Like Him
TTITLE5=Prais'n Saints
TTITLE6=Nobody Can Do Like Jesus
TTITLE7=The Story Of A Blind Man
TTITLE8=Take It To Jesus
TTITLE9=He Is Lord
TTITLE10=Over Yonder
EXTD=
EXTT0=
EXTT1=
EXTT2=
EXTT3=
EXTT4=
EXTT5=
EXTT6=
EXTT7=
EXTT8=
EXTT9=
EXTT10=
PLAYORDER=
